<mxfile host="app.diagrams.net" modified="2023-05-24T13:21:21.823Z" agent="Mozilla/5.0 (X11; Ubuntu; Linux x86_64; rv:109.0) Gecko/20100101 Firefox/113.0" version="21.3.3" etag="PQG4FYsYiaaSJnP_y8rp" type="github">
  <diagram name="Page-1" id="hcGWL1jPU40X68SvBEkp">
    <mxGraphModel>
      <root>
        <mxCell id="0" />
        <mxCell id="1" parent="0" />
      </root>
    </mxGraphModel>
  </diagram>
</mxfile>
